<svg xmlns="http://www.w3.org/2000/svg" xmlns:xlink="http://www.w3.org/1999/xlink" xml:space="preserve" viewBox="0 0 445 115"><style>.st0,.st1{fill:#fff}.st1{fill-rule:evenodd;clip-rule:evenodd}</style><g><g><path d="M76.7 7.4H32C19.7 7.4 9.6 18 9.6 30.9v47c0 12.9 10.1 23.5 22.4 23.5h44.8c12.3 0 22.4-10.6 22.4-23.5v-47C99.1 18 89 7.4 76.7 7.4zM49.5 26.9c0-2.2 1.7-4 3.8-4h7c2.1 0 3.8 1.8 3.8 4v7.3c0 2.2-1.7 4-3.8 4h-7c-2.1 0-3.8-1.8-3.8-4v-7.3zM44 69c0 1.5-1.2 2.7-2.6 2.7h-4.8c-1.4 0-2.6-1.2-2.6-2.7v-5c0-1.5 1.2-2.7 2.6-2.7h4.8c1.4 0 2.6 1.2 2.6 2.7v5zm-1.8-14.4h-7.9c-2.3 0-4.2-2-4.2-4.5v-8.3c0-2.5 1.9-4.5 4.2-4.5h7.9c2.3 0 4.2 2 4.2 4.5v8.3c0 2.5-1.9 4.5-4.2 4.5zm15.2 29.7c0 1.8-1.4 3.2-3.1 3.2h-5.7c-1.7 0-3-1.4-3-3.2v-6c0-1.8 1.4-3.2 3-3.2h5.7c1.7 0 3.1 1.4 3.1 3.2v6zm4.9-14.8c-3 1.6-7.5 1-9.9-1.2-.5-.4-.9-.9-1-1.6-.3-1.5 1-2.6 2.5-2 .5.2 1 .5 1.4.8 1.3.8 2.7 1.3 4.3 1 .8-.1 1.5-.4 1.9-1.2.6-1 .4-2.1-.5-3.1-.8-.8-1.7-1.4-2.7-1.9-1.2-.6-2.3-1.2-3.5-1.8-1.3-.8-2.3-1.8-2.9-3.2-1.2-3-.1-6 2.6-7.6 1.2-.7 2.6-1 4-1.1 1.9.1 3.7.6 5.3 1.8.4.3.8.8 1 1.2.3.6.3 1.2-.1 1.8s-1 .9-1.7.8c-.6-.1-1.3-.4-1.8-.7-1.1-.7-2.3-1-3.6-.8-.4.1-.9.2-1.3.4-1.2.7-1.4 2.4-.3 3.5.5.5 1 .9 1.5 1.2 1.4.8 2.8 1.5 4.2 2.3 1.2.7 2.3 1.6 3 3 1.9 3.1.8 6.7-2.4 8.4zm7.4-2h-.6v2.6c0 .1-.1.2-.2.2s-.2-.1-.2-.2v-2.6h-.6c-.1 0-.2-.1-.2-.3 0-.2.1-.3.2-.3h1.7c.1 0 .2.1.2.3-.1.2-.2.3-.3.3zm3.5 2.7c0 .1-.1.2-.2.2s-.2-.1-.2-.2v-2.1c-.1.4-.3.9-.4 1.3-.2.8-.3.8-.3.8-.1.1-.1.2-.2.2s-.2-.1-.2-.2l-.9-2.1v2.1c0 .1-.1.2-.2.2s-.2-.1-.2-.2v-2.8c0-.2.2-.4.4-.4s.3.1.4.3l.7 2.2.7-2.2c.1-.2.2-.3.4-.3s.4.2.4.4l-.2 2.8zm4-31.2c0 1.2-.9 2.2-2.1 2.2h-3.9c-1.2 0-2.1-1-2.1-2.2v-4.1c0-1.2.9-2.2 2.1-2.2h3.9c1.2 0 2.1 1 2.1 2.2V39z" class="st0"></path></g><g><g><g><path id="Fill-32_1_" d="M152.7 27.6c1.3-4.4 5.3-7.6 10.1-7.6 4.7 0 8.7 3.2 10 7.6h-20.1zm10.1-13.1c-8.8 0-15.8 7.3-15.8 16.4 0 9.2 7 16.6 15.8 16.6 4.2 0 8.1-1.7 10.9-4.7.6-.5.9-1.3.9-2 0-1.5-1.2-2.8-2.6-2.8-.8 0-1.5.5-2.1 1.1-1.8 2-4.4 2.9-7.1 2.9-5.3 0-9.5-3.8-10.4-9H176.4c1.1-.3 2.1-1.4 2.1-2.9-.1-8.4-7.3-15.6-15.7-15.6z" class="st1"></path><path id="Fill-34_1_" d="M213.3 42c-5.9 0-10.6-4.9-10.6-11.1 0-6.1 4.6-11 10.6-11 5.9 0 10.5 4.9 10.5 11 0 6.3-4.6 11.1-10.5 11.1m13.1-27.2c-1.4 0-2.6 1.2-2.6 2.6v1.3c-2.8-2.6-6.5-4.2-10.5-4.2-8.8 0-15.8 7.3-15.8 16.4 0 9.2 7 16.6 15.8 16.6 4 0 7.7-1.6 10.5-4.2v1.3c0 1.4 1.2 2.6 2.6 2.6 1.3 0 2.6-1.2 2.6-2.6V17.4c0-1.4-1.3-2.6-2.6-2.6" class="st1"></path><path id="Fill-36_1_" d="M271 42c-5.9 0-10.6-4.9-10.6-11.1 0-6.1 4.6-11 10.6-11 5.9 0 10.5 4.9 10.5 11 .1 6.3-4.6 11.1-10.5 11.1m13.2-27.2c-1.4 0-2.6 1.2-2.6 2.6v1.3c-2.8-2.6-6.5-4.2-10.5-4.2-8.8 0-15.8 7.3-15.8 16.4 0 9.2 7 16.6 15.8 16.6 4 0 7.7-1.6 10.5-4.2v1.3c0 1.4 1.2 2.6 2.6 2.6 1.3 0 2.6-1.2 2.6-2.6V17.4c0-1.4-1.3-2.6-2.6-2.6" class="st1"></path><path id="Fill-38_1_" d="M195.7 14.5c-3 .1-5.8 1-7.9 2.8-.1-1.3-1.3-2.5-2.6-2.5-1.4 0-2.6 1.2-2.6 2.6v27.2c0 1.4 1.2 2.6 2.6 2.6 1.3 0 2.6-1.2 2.6-2.6V28.1c0-6.4 3.8-7.9 7.9-8 1.6 0 2.9-1.3 2.9-2.8 0-1.4-1.2-2.8-2.9-2.8" class="st1"></path><path id="Fill-40_1_" d="M139 30.3c-1.9-1.1-3.9-2.1-5.9-3.3-.8-.5-1.5-1-2.2-1.7-1.5-1.6-1.2-3.9.5-4.9.5-.3 1.2-.5 1.8-.6 1.8-.2 3.4.2 5 1.2.8.5 1.7.8 2.6 1 .9.2 1.7-.2 2.3-1s.6-1.7.1-2.5c-.4-.6-.9-1.2-1.4-1.7-2.2-1.7-4.7-2.4-7.4-2.5-2 0-3.9.5-5.6 1.5-3.8 2.2-5.2 6.5-3.6 10.6.8 2 2.2 3.5 4 4.5 1.6.9 3.2 1.7 4.8 2.6 1.3.7 2.6 1.5 3.7 2.6 1.3 1.4 1.6 3 .7 4.4-.6 1-1.6 1.4-2.7 1.6-2.2.4-4.1-.2-6-1.4-.6-.4-1.3-.8-2-1.1-2-.8-3.8.7-3.5 2.8.2.9.7 1.6 1.4 2.2 3.4 3.1 9.7 3.9 13.9 1.7 4.5-2.3 6-7.3 3.7-12-1-1.7-2.5-3-4.2-4" class="st1"></path><path id="Fill-42_1_" d="M247.6 30.3c-1.9-1.1-3.9-2.1-5.9-3.3-.8-.5-1.5-1-2.2-1.7-1.5-1.6-1.2-3.9.5-4.9.5-.3 1.2-.5 1.8-.6 1.8-.2 3.4.2 5 1.2.8.5 1.7.8 2.6 1 .9.2 1.7-.2 2.3-1s.6-1.7.1-2.5c-.4-.6-.9-1.2-1.4-1.7-2.2-1.7-4.7-2.4-7.4-2.5-2 0-3.9.5-5.6 1.5-3.8 2.2-5.2 6.5-3.6 10.6.8 2 2.2 3.5 4 4.5 1.6.9 3.2 1.7 4.8 2.6 1.3.7 2.6 1.5 3.7 2.6 1.3 1.4 1.6 3 .7 4.4-.6 1-1.6 1.4-2.7 1.6-2.2.4-4.1-.2-6-1.4-.6-.4-1.3-.8-2-1.1-2-.8-3.8.7-3.5 2.8.2.9.7 1.6 1.4 2.2 3.4 3.1 9.7 3.9 13.9 1.7 4.5-2.3 6-7.3 3.7-12-.9-1.7-2.4-3-4.2-4" class="st1"></path></g></g><g><path d="M123.7 52.4c0-1.4 1.2-2.6 2.6-2.6 1.3 0 2.5 1.2 2.5 2.6v39.8c0 1.4-1.3 2.6-2.5 2.6-1.4 0-2.6-1.2-2.6-2.6V52.4zM134.3 55.8c0-1.4 1.2-2.6 2.6-2.6 1.3 0 2.5 1.3 2.5 2.6 0 1.5-1.2 2.7-2.5 2.7-1.4 0-2.6-1.2-2.6-2.7zm0 9.4c0-1.4 1.2-2.6 2.6-2.6 1.3 0 2.5 1.2 2.5 2.6v27.1c0 1.4-1.3 2.6-2.5 2.6-1.4 0-2.6-1.2-2.6-2.6V65.2zM166.5 76.1c0-4.5-3.8-8.5-8.1-8.5-4.2 0-8.1 1.7-8.1 8v16.6c0 1.4-1.3 2.6-2.5 2.6-1.4 0-2.6-1.2-2.6-2.6V65.1c0-1.4 1.2-2.6 2.6-2.6 1.2 0 2.5 1.2 2.5 2.5 2.2-1.8 5-2.7 8-2.7 4.2 0 8.2 2 10.7 5.3 2.4-3.3 6.4-5.3 10.6-5.3 7 0 13.3 5.8 13.3 13v16.9c0 1.4-1.3 2.6-2.5 2.6-1.4 0-2.6-1.2-2.6-2.6V76.1c0-4.5-3.8-8.5-8.1-8.5-4.1 0-8.2 3.5-8.2 7.8v16.8c0 1.5-1.2 2.6-2.4 2.6-1.4 0-2.6-1.2-2.6-2.6V76.1zM202.7 66.4c2.7-2.6 6.4-4.2 10.4-4.2 8.7 0 15.7 7.3 15.7 16.5 0 9-7 16.4-15.7 16.4-4 0-7.7-1.6-10.4-4.2V105c0 1.4-1.2 2.6-2.6 2.6-1.3 0-2.5-1.2-2.5-2.6V65.1c0-1.4 1.3-2.6 2.5-2.6 1.4 0 2.6 1.2 2.6 2.6v1.3zm10.4 1.3c-5.8 0-10.4 4.8-10.4 11 0 6.1 4.6 11 10.4 11 5.9 0 10.5-4.8 10.5-11s-4.6-11-10.5-11zM258.8 65.2c0-1.4 1.2-2.6 2.6-2.6 1.3 0 2.5 1.2 2.5 2.6v27.1c0 1.4-1.3 2.6-2.5 2.6-1.4 0-2.6-1.2-2.6-2.6V91c-2.8 2.6-6.4 4.2-10.4 4.2-8.7 0-15.7-7.3-15.7-16.5 0-9 7-16.4 15.7-16.4 4 0 7.6 1.6 10.4 4.2v-1.3zm-10.4 24.5c5.8 0 10.4-4.8 10.4-11 0-6.1-4.6-11-10.4-11-5.9 0-10.5 4.8-10.5 11 0 6.1 4.6 11 10.5 11zM307.4 76.1c0-4.5-3.8-8.5-8-8.5s-8 1.8-8 8.2v16.5c0 1.4-1.3 2.6-2.5 2.6-1.4 0-2.6-1.2-2.6-2.6V65.2c0-1.4 1.2-2.6 2.6-2.6 1.2 0 2.5 1.2 2.5 2.5 2.2-1.8 5-2.7 8-2.7 7 0 13.3 5.8 13.3 13v16.9c0 1.4-1.3 2.6-2.5 2.6-1.4 0-2.6-1.2-2.6-2.6l-.2-16.2zM332.2 62.3c8.6 0 15.6 7.3 15.6 16.4 0 9.2-7 16.5-15.6 16.5-8.7 0-15.7-7.3-15.7-16.5 0-9.1 7-16.4 15.7-16.4zm0 27.4c5.8 0 10.4-4.8 10.4-11 0-6.1-4.6-11-10.4-11-5.9 0-10.5 4.8-10.5 11 0 6.1 4.6 11 10.5 11zM373.7 76.1c0-4.5-3.8-8.5-8-8.5s-8 1.7-8 8v16.6c0 1.4-1.3 2.6-2.5 2.6-1.4 0-2.6-1.2-2.6-2.6V65.1c0-1.4 1.2-2.6 2.6-2.6 1.2 0 2.5 1.2 2.5 2.5 2.2-1.8 5-2.7 8-2.7 4.2 0 8.2 2 10.7 5.3 2.4-3.3 6.4-5.3 10.6-5.3 7 0 13.3 5.8 13.3 13v16.9c0 1.4-1.3 2.6-2.5 2.6-1.4 0-2.6-1.2-2.6-2.6V76.1c0-4.5-3.8-8.5-8-8.5-4.1 0-8.2 3.5-8.2 7.8v16.8c0 1.5-1.2 2.6-2.4 2.6-1.4 0-2.6-1.2-2.6-2.6l-.3-16.1zM404 78.7c0-9 7-16.4 15.7-16.4 8.4 0 15.4 7.1 15.6 15.5 0 1.6-1.1 2.8-2.4 2.9h-23.5c.9 5.2 5.1 9 10.4 9 2.7 0 5.3-.9 7.1-2.9.5-.6 1.3-1.1 2.1-1.1 1.4 0 2.6 1.3 2.6 2.7 0 .8-.4 1.5-.9 2-2.8 2.9-6.7 4.7-10.8 4.7-8.9 0-15.9-7.3-15.9-16.4zm5.4-2.5h20.5c-1-4.9-5.1-8.5-10.2-8.5s-9.2 3.6-10.3 8.5z" class="st0"></path></g></g></g></svg>